<svg xmlns="http://www.w3.org/2000/svg" width="16" height="12.758" viewBox="0 0 16 12.758">
  <path id="パス_649" data-name="パス 649" d="M12.794,4.885l-.205.358a.309.309,0,0,1-.378.135,2.763,2.763,0,0,1-.8-.465.311.311,0,0,1-.07-.393l.205-.358a2.158,2.158,0,0,1-.4-.685h-.413a.309.309,0,0,1-.305-.258,2.817,2.817,0,0,1,0-.928.311.311,0,0,1,.305-.26h.413a2.158,2.158,0,0,1,.4-.685L11.339.99A.308.308,0,0,1,11.409.6a2.8,2.8,0,0,1,.8-.465.309.309,0,0,1,.378.135l.205.358a2.222,2.222,0,0,1,.793,0l.205-.358A.309.309,0,0,1,14.17.132a2.763,2.763,0,0,1,.8.465.311.311,0,0,1,.07.393l-.205.358a2.158,2.158,0,0,1,.4.685h.413a.309.309,0,0,1,.305.258,2.817,2.817,0,0,1,0,.928.311.311,0,0,1-.305.26h-.413a2.158,2.158,0,0,1-.4.685l.205.358a.308.308,0,0,1-.07.393,2.8,2.8,0,0,1-.8.465.309.309,0,0,1-.378-.135l-.205-.358A2.222,2.222,0,0,1,12.794,4.885Zm-.263-1.47a.934.934,0,0,0,1.32-1.32A.934.934,0,0,0,12.532,3.415ZM9.649,7.263l.843.42a.6.6,0,0,1,.263.728,5.9,5.9,0,0,1-1.065,1.645.6.6,0,0,1-.758.133L8.2,9.768a4.3,4.3,0,0,1-1.373.793v.84a.6.6,0,0,1-.493.59,5.623,5.623,0,0,1-1.9,0,.6.6,0,0,1-.5-.59v-.84a4.342,4.342,0,0,1-1.373-.793l-.728.418a.6.6,0,0,1-.758-.133A5.894,5.894,0,0,1,.028,8.41a.6.6,0,0,1,.263-.728l.833-.42a4.331,4.331,0,0,1,0-1.585L.291,5.255A.6.6,0,0,1,.028,4.53,5.87,5.87,0,0,1,1.083,2.885a.6.6,0,0,1,.758-.133l.728.42A4.3,4.3,0,0,1,3.941,2.38V1.537A.6.6,0,0,1,4.431.95a5.7,5.7,0,0,1,1.9,0,.6.6,0,0,1,.5.59v.84A4.342,4.342,0,0,1,8.2,3.17l.728-.42a.6.6,0,0,1,.758.133,5.862,5.862,0,0,1,1.053,1.645.6.6,0,0,1-.25.728l-.843.42A4.345,4.345,0,0,1,9.649,7.263Zm-2.94.528A1.87,1.87,0,0,0,4.066,5.147,1.87,1.87,0,0,0,6.709,7.79Zm6.086,4.568-.205.358a.309.309,0,0,1-.378.135,2.763,2.763,0,0,1-.8-.465.311.311,0,0,1-.07-.393l.205-.358a2.158,2.158,0,0,1-.4-.685h-.413a.309.309,0,0,1-.305-.258,2.817,2.817,0,0,1,0-.928.311.311,0,0,1,.305-.26h.413a2.158,2.158,0,0,1,.4-.685l-.205-.358a.308.308,0,0,1,.07-.393,2.8,2.8,0,0,1,.8-.465.309.309,0,0,1,.378.135l.205.358a2.222,2.222,0,0,1,.793,0l.205-.358a.309.309,0,0,1,.378-.135,2.763,2.763,0,0,1,.8.465.311.311,0,0,1,.07.393l-.205.358a2.158,2.158,0,0,1,.4.685h.413a.309.309,0,0,1,.305.258,2.817,2.817,0,0,1,0,.928.311.311,0,0,1-.305.26h-.413a2.158,2.158,0,0,1-.4.685l.205.358a.308.308,0,0,1-.07.393,2.8,2.8,0,0,1-.8.465.309.309,0,0,1-.378-.135l-.205-.358A2.222,2.222,0,0,1,12.794,12.358Zm-.263-1.473a.934.934,0,0,0,1.32-1.32.934.934,0,0,0-1.32,1.32Z" transform="translate(0.009 -0.112)" fill="#00987E"/>
</svg>
