<?xml version="1.0" encoding="utf-8"?>
<!-- Generator: Adobe Illustrator 25.3.1, SVG Export Plug-In . SVG Version: 6.00 Build 0)  -->
<svg version="1.1" id="レイヤー_1" xmlns="http://www.w3.org/2000/svg" xmlns:xlink="http://www.w3.org/1999/xlink" x="0px"
	 y="0px" viewBox="0 0 16.7 16" style="enable-background:new 0 0 16.7 16;" xml:space="preserve">
<style type="text/css">
	.st0{fill:#00987E;}
</style>
<path class="st0" d="M15.8,6.1c1.1,4.3-1.5,8.6-5.8,9.7C9.3,15.9,8.7,16,8,16v0c-4.4,0-8-3.6-8-8s3.6-8,8-8c1.9,0,3.8,0.7,5.3,2
	c0.3,0.3,0.3,0.8,0,1.1c-0.3,0.3-0.7,0.3-1,0.1C9.6,0.7,5.5,1,3.1,3.7C0.7,6.4,1,10.6,3.7,12.9c1.2,1,2.7,1.6,4.3,1.6
	c3.6,0,6.5-2.9,6.5-6.5c0-0.5-0.1-1.1-0.2-1.6c-0.1-0.4,0.1-0.8,0.6-0.9C15.3,5.4,15.7,5.7,15.8,6.1z M16.4,2
	c-0.3-0.3-0.8-0.3-1.1,0l-8.5,8.5L4.6,8.3C4.3,8,3.8,8,3.6,8.3s-0.3,0.8,0,1.1l2.8,2.8c0.1,0.1,0.3,0.2,0.5,0.2
	c0.2,0,0.4-0.1,0.5-0.2l9-9C16.7,2.8,16.7,2.3,16.4,2z"/>
</svg>
