<svg xmlns="http://www.w3.org/2000/svg" width="16.622" height="16.622" viewBox="0 0 16.622 16.622">
  <g id="グループ_10940" data-name="グループ 10940" transform="translate(-15.625 -15.625)">
    <path id="パス_607" data-name="パス 607" d="M23.936,32.247a8.311,8.311,0,1,1,8.311-8.311A8.311,8.311,0,0,1,23.936,32.247Zm0-1.511a6.8,6.8,0,1,0-6.8-6.8A6.8,6.8,0,0,0,23.936,30.736Z" fill="#fff" fill-rule="evenodd"/>
    <path id="パス_608" data-name="パス 608" d="M50.32,34.927a.732.732,0,0,1-1.035,1.035l-2.2-2.2a.732.732,0,0,1-.214-.518V28.857a.732.732,0,0,1,1.464,0v4.089Z" transform="translate(-23.625 -9.383)" fill="#fff" fill-rule="evenodd"/>
  </g>
</svg>
