<svg xmlns="http://www.w3.org/2000/svg" width="40" height="40" viewBox="0 0 40 40">
  <g id="グループ_11010" data-name="グループ 11010" transform="translate(-17 -147)">
    <circle id="楕円形_6" data-name="楕円形 6" cx="20" cy="20" r="20" transform="translate(17 147)" fill="#fff"/>
    <g id="グループ_10895" data-name="グループ 10895" transform="translate(-105 22)">
      <g id="グループ_10895-2" data-name="グループ 10895" transform="translate(-474.314 -153.702)">
        <path id="パス_537" data-name="パス 537" d="M624.674,285.7h-16.72a1.647,1.647,0,0,0-1.64,1.64v21.852a1.647,1.647,0,0,0,1.64,1.64h16.72a1.647,1.647,0,0,0,1.64-1.64V287.342A1.647,1.647,0,0,0,624.674,285.7Z" fill="#a6d15f"/>
        <path id="パス_541" data-name="パス 541" d="M624.674,285.7h-16.72c-.9,0,18.36,24.392,18.36,23.492V287.342A1.647,1.647,0,0,0,624.674,285.7Z" fill="#ccf58a"/>
        <path id="パス_577" data-name="パス 577" d="M622.173,307.681h-11.75a.591.591,0,1,1-.049-1.181.4.4,0,0,1,.049,0H622.2a.609.609,0,0,1,.625.59A.644.644,0,0,1,622.173,307.681Z" fill="#4dbbaa"/>
        <path id="パス_578" data-name="パス 578" d="M622.173,303.343h-11.75a.591.591,0,1,1-.049-1.181H622.2a.609.609,0,0,1,.625.59A.644.644,0,0,1,622.173,303.343Z" fill="#4dbbaa"/>
        <path id="パス_579" data-name="パス 579" d="M622.173,299.034h-11.75a.591.591,0,1,1-.049-1.181.4.4,0,0,1,.049,0H622.2a.609.609,0,0,1,.625.59.635.635,0,0,1-.653.59Z" fill="#4dbbaa"/>
        <path id="パス_580" data-name="パス 580" d="M615.861,295.049h-.032a3.117,3.117,0,0,1-2.093-.826,2.7,2.7,0,0,1-.875-1.977,2.907,2.907,0,0,1,2.812-2.833.12.12,0,0,1,.094.029.1.1,0,0,1,.032.088v2.538a.207.207,0,0,0,.209.207H618.7a.125.125,0,0,1,.1.027.107.107,0,0,1,.031.088A2.959,2.959,0,0,1,615.861,295.049Z" fill="#0093ff"/>
        <path id="パス_581" data-name="パス 581" d="M619.83,291.124h-2.687a.132.132,0,0,1-.125-.118V288.5a.1.1,0,0,1,.032-.088.12.12,0,0,1,.094-.029A2.916,2.916,0,0,1,619.955,291a.106.106,0,0,1-.031.088A.118.118,0,0,1,619.83,291.124Z" fill="#0093ff"/>
      </g>
    </g>
  </g>
</svg>
