<svg id="レイヤー_1" data-name="レイヤー 1" xmlns="http://www.w3.org/2000/svg" viewBox="0 0 15.81 16.005"><defs><style>.cls-1{fill:#fff;}</style></defs><path id="パス_610" data-name="パス 610" class="cls-1" d="M13.821,2.853H6.489L4.028.341a1.17,1.17,0,0,0-1.652,0L.337,2.364A1.145,1.145,0,0,0,0,3.19a1.171,1.171,0,0,0,.337.826l2.68,2.7v7.3a1.992,1.992,0,0,0,1.989,1.989h8.815a1.992,1.992,0,0,0,1.989-1.989V4.858a1.985,1.985,0,0,0-1.965-2ZM10.113,8.785l.927,2.023a.2.2,0,0,1-.051.27.233.233,0,0,1-.27.051L8.7,10.184h0l1.416-1.4ZM7.6,9.442c-.084-.084-.185-.152-.27-.236L3.674,5.5l1.82-1.8L9.151,7.407c.084.084.152.185.236.287ZM3.185,1.386,4.551,2.751,2.73,4.555,1.365,3.19ZM14.5,14.025a.676.676,0,0,1-.674.674H5.006a.676.676,0,0,1-.674-.674V8.044l2.056,2.09a5.9,5.9,0,0,0,1.77,1.247l2.023.944a1.573,1.573,0,0,0,.674.152,1.53,1.53,0,0,0,1.1-.455,1.552,1.552,0,0,0,.32-1.753l-.927-2.023a6.155,6.155,0,0,0-1.23-1.77L7.8,4.167h6.017a.679.679,0,0,1,.674.686v0Z" transform="translate(0 0)"/></svg>