<svg xmlns="http://www.w3.org/2000/svg" width="40" height="40" viewBox="0 0 40 40">
  <g id="グループ_11017" data-name="グループ 11017" transform="translate(727 -16482)">
    <circle id="楕円形_60" data-name="楕円形 60" cx="20" cy="20" r="20" transform="translate(-727 16482)" fill="#fff"/>
    <g id="グループ_11016" data-name="グループ 11016" transform="translate(-722.312 16489.012)">
      <circle id="楕円形_59" data-name="楕円形 59" cx="0.865" cy="0.865" r="0.865" transform="translate(18.583 18.549)" fill="#ccf58a"/>
      <g id="グループ_11012" data-name="グループ 11012" transform="translate(-18.07 -528.572)">
        <path id="パス_650" data-name="パス 650" d="M12.08,9.129,21.553,18.6a4.915,4.915,0,0,1,5.1,1.115,4.617,4.617,0,0,1,.876,5.334l-3.025-3.1a1.633,1.633,0,0,0-2.309,2.309l3.1,3.1a4.785,4.785,0,0,1-6.448-6.051L9.373,11.836a4.785,4.785,0,0,1-6.05-6.448l3.1,3.1A1.633,1.633,0,0,0,8.736,6.183l-3.1-3.025a4.616,4.616,0,0,1,5.334.876A4.916,4.916,0,0,1,12.08,9.129Z" transform="translate(17.121 526.326)" fill="#ccf58a" fill-rule="evenodd"/>
        <path id="パス_651" data-name="パス 651" d="M3.31,23.781l7.723-7.722,3.5,3.5L6.813,27.285C4.5,29.593,1,26.09,3.31,23.781ZM16.764,12.238,20.9,8.1l2.07-3.264L26,3l1.592,1.513-1.911,3.1L22.5,9.611,18.277,13.83Z" transform="translate(17.372 526.083)" fill="#4dbbaa" fill-rule="evenodd"/>
      </g>
    </g>
  </g>
</svg>