<svg xmlns="http://www.w3.org/2000/svg" width="40" height="40" viewBox="0 0 40 40">
  <g id="グループ_11007" data-name="グループ 11007" transform="translate(-20 -360)">
    <circle id="楕円形_10" data-name="楕円形 10" cx="20" cy="20" r="20" transform="translate(20 360)" fill="#fff"/>
    <g id="グループ_10889" data-name="グループ 10889" transform="translate(-483.305 8.093)">
      <g id="グループ_10884" data-name="グループ 10884" transform="translate(519.121 367.763)">
        <path id="パス_563" data-name="パス 563" d="M523.843,376.746a.605.605,0,0,1,0-.857l4.069-4.068a.605.605,0,0,1,.856.856l-4.068,4.069A.606.606,0,0,1,523.843,376.746Z" transform="translate(-523.665 -371.643)" fill="#b0e659"/>
      </g>
      <g id="グループ_10885" data-name="グループ 10885" transform="translate(521.263 369.904)">
        <path id="パス_564" data-name="パス 564" d="M526.972,379.876a.607.607,0,0,1,0-.857l4.069-4.069a.606.606,0,1,1,.857.857l-4.069,4.069A.607.607,0,0,1,526.972,379.876Z" transform="translate(-526.795 -374.773)" fill="#b0e659"/>
      </g>
      <g id="グループ_10886" data-name="グループ 10886" transform="translate(514.345 359.353)">
        <path id="パス_565" data-name="パス 565" d="M521.4,369.4a.606.606,0,0,1-1.211.052c-.1-2.422-3.107-3.72-3.137-3.733a.607.607,0,0,1-.263-.9c1.844-2.65,5.592-2.351,5.75-2.338a9.714,9.714,0,0,0,6.211-1.19,4.317,4.317,0,0,0,1.5-1.572.6.6,0,0,1,.69-.345c.17.039,4.176,1.048,3.679,8.539a6.9,6.9,0,0,0,1.227,4.748,4.742,4.742,0,0,0,1.464,1.318.62.62,0,0,1,.342.71.582.582,0,0,1-.6.441c-.119.016-1.131.213-2.54,2.181a3.153,3.153,0,0,1-2.7,1.263,6.486,6.486,0,0,1-2.258-.447.606.606,0,0,1,.467-1.118" transform="translate(-516.686 -359.353)" fill="#4dbbaa"/>
      </g>
      <g id="グループ_10887" data-name="グループ 10887" transform="translate(523.404 374.187)">
        <path id="パス_566" data-name="パス 566" d="M530.1,383.993a.606.606,0,0,1,0-.857l1.927-1.927a.606.606,0,0,1,.857.857l-1.928,1.927A.6.6,0,0,1,530.1,383.993Z" transform="translate(-529.925 -381.031)" fill="#b0e659"/>
      </g>
      <g id="グループ_10888" data-name="グループ 10888" transform="translate(509.27 365.179)">
        <path id="パス_567" data-name="パス 567" d="M516.728,390.972l-7.281-7.281a.607.607,0,0,1,0-.857l1.3-1.3a4.672,4.672,0,0,0,1.264-4.336l-.936-4.223a2.12,2.12,0,1,1,4.14-.917l.442,2,5.568-5.568a33.512,33.512,0,0,0,6,1.285,5.244,5.244,0,0,0,1.906,4.5,2.106,2.106,0,0,1-.621,1.5l-.786.786a2.122,2.122,0,0,1,.786,3.5l-10.921,10.921A.605.605,0,0,1,516.728,390.972Z" transform="translate(-509.27 -367.867)" fill="#ccf58a"/>
      </g>
    </g>
  </g>
</svg>
