<svg xmlns="http://www.w3.org/2000/svg" xmlns:xlink="http://www.w3.org/1999/xlink" width="40" height="40" viewBox="0 0 40 40">
  <defs>
    <clipPath id="clip-path">
      <circle id="楕円形_23" data-name="楕円形 23" cx="20" cy="20" r="20" transform="translate(1053.513 316.678)" fill="none"/>
    </clipPath>
  </defs>
  <g id="グループ_10900" data-name="グループ 10900" transform="translate(-1053.514 -316.678)">
    <path id="楕円形_8" data-name="楕円形 8" d="M20,0A20,20,0,1,1,0,20,20,20,0,0,1,20,0Z" transform="translate(1053.513 316.678)" fill="#fff"/>
    <g id="グループ_10921" data-name="グループ 10921">
      <g id="グループ_10920" data-name="グループ 10920" clip-path="url(#clip-path)">
        <g id="マスクグループ_4" data-name="マスクグループ 4">
          <g id="グループ_10874" data-name="グループ 10874">
            <path id="パス_460" data-name="パス 460" d="M1083.027,368.977a2.544,2.544,0,1,0,5.089,0V348.16a6.961,6.961,0,0,0-6.936-6.939H1077.5a8.752,8.752,0,0,1,.484,3c0,2.239-1.445,4.573-2.727,6.2l-.694-5.11a3.536,3.536,0,0,1-1.247.23h0a3.56,3.56,0,0,1-1.25-.229l-.693,5.109c-1.282-1.63-2.727-3.964-2.727-6.2a8.776,8.776,0,0,1,.485-3h-3.681a6.961,6.961,0,0,0-6.939,6.939v20.818a2.545,2.545,0,0,0,5.089,0m1.388,32.38a3.7,3.7,0,1,0,7.4,0v-29.6h1.85v29.6a3.7,3.7,0,1,0,7.4,0m-1.385-48.109h-5.089v-1.388h5.089Z" fill="#a6d15f"/>
            <path id="パス_461" data-name="パス 461" d="M1072.137,341.54l-.59,2.327.07.111a2.574,2.574,0,0,0,3.4,0l.069-.109-.589-2.327h-2.36Z" fill="#0093ff"/>
            <path id="パス_462" data-name="パス 462" d="M1079.961,330.4c.795.029,1.409-.1,1.679-.521.9-1.424-1.412-7.366-8.324-7.366s-9.227,5.942-8.323,7.366c.269.425.883.55,1.678.521a1.083,1.083,0,0,0,.433.67,6.477,6.477,0,1,0,12.423,0A1.081,1.081,0,0,0,1079.961,330.4Zm-6.642-6.648a1.362,1.362,0,1,1-1.362,1.362h0A1.362,1.362,0,0,1,1073.319,323.754Zm0,4.44c-3.131,0-5.749.688-6.462,1.615a.844.844,0,0,1-.2-.5c0-1.17,2.982-2.119,6.66-2.119s6.66.949,6.66,2.119a.832.832,0,0,1-.2.5C1079.065,328.887,1076.447,328.194,1073.319,328.194Z" fill="#a6d15f"/>
            <path id="パス_545" data-name="パス 545" d="M1079.961,330.4c.795.029,1.409-.1,1.679-.521.9-1.424-1.412-7.366-8.324-7.366s-9.227,5.942-8.323,7.366c.269.425.883.55,1.678.521A124.828,124.828,0,0,0,1079.961,330.4Zm-6.642-6.648a1.362,1.362,0,1,1-1.362,1.362h0A1.362,1.362,0,0,1,1073.319,323.754Zm0,4.44c-3.131,0-5.749.688-6.462,1.615a.844.844,0,0,1-.2-.5c0-1.17,2.982-2.119,6.66-2.119s6.66.949,6.66,2.119a.832.832,0,0,1-.2.5C1079.065,328.887,1076.447,328.194,1073.319,328.194Z" fill="#4dbbaa"/>
          </g>
        </g>
      </g>
    </g>
  </g>
</svg>
