<svg id="レイヤー_1" data-name="レイヤー 1" xmlns="http://www.w3.org/2000/svg" viewBox="0 0 16.519 14.346"><defs><style>.cls-1{fill:#00987E;}</style></defs><g id="グループ_10933" data-name="グループ 10933"><path id="パス_602" data-name="パス 602" class="cls-1" d="M1.285,14.326A1.287,1.287,0,0,1,0,13.041V2.76A1.287,1.287,0,0,1,1.285,1.475H2.937a.551.551,0,0,1,.553.5V.557A.551.551,0,0,1,3.9.019L3.957.007h.1a.551.551,0,0,1,.531.57v.9h7.343V.559A.551.551,0,1,1,13.035.5c0,.022,0,.044,0,.066v.909h2.2a1.287,1.287,0,0,1,1.285,1.285V13.041a1.287,1.287,0,0,1-1.285,1.285Zm0-11.75a.181.181,0,0,0-.184.176V13.041a.179.179,0,0,0,.172.184H15.238a.179.179,0,0,0,.184-.172V2.76a.179.179,0,0,0-.172-.184H13.038v.551a.551.551,0,1,1-1.1-.006V2.575H4.59v.551a.551.551,0,1,1-1.1.061.485.485,0,0,1,0-.066V2.079a.552.552,0,0,1-.548.5Zm10.447,9a.552.552,0,0,1-.051-1.1h2.272a.551.551,0,0,1,.066,1.1H11.732Zm-4.59,0a.552.552,0,0,1-.051-1.1H9.363a.551.551,0,0,1,.066,1.1H7.142Zm-4.59,0a.552.552,0,0,1-.051-1.1H4.773a.551.551,0,1,1,0,1.1H2.553Zm9.179-2.57a.552.552,0,0,1-.051-1.1h2.272a.551.551,0,1,1,.066,1.1H11.731Zm-4.59,0a.552.552,0,0,1-.051-1.1H9.362a.551.551,0,1,1,.066,1.1H7.141Zm-4.59,0a.552.552,0,0,1-.051-1.1H4.773a.551.551,0,1,1,0,1.1H2.553Zm9.179-2.57a.552.552,0,0,1-.051-1.1h2.272a.551.551,0,1,1,.066,1.1q-.033,0-.066,0H11.73Zm-4.59,0a.552.552,0,0,1-.051-1.1H9.361a.551.551,0,0,1,.066,1.1q-.033,0-.066,0H7.14Z" transform="translate(0 0.02)"/></g></svg>