<svg xmlns="http://www.w3.org/2000/svg" width="40" height="40" viewBox="0 0 40 40">
  <g id="グループ_11008" data-name="グループ 11008" transform="translate(-20 -240)">
    <circle id="楕円形_7" data-name="楕円形 7" cx="20" cy="20" r="20" transform="translate(20 240)" fill="#fff"/>
    <g id="グループ_10890" data-name="グループ 10890" transform="translate(-490.918 -47.142)">
      <ellipse id="楕円形_17" data-name="楕円形 17" cx="8.603" cy="8.603" rx="8.603" ry="8.603" transform="translate(522.296 298.559)" fill="#ccf58a"/>
      <path id="パス_573" data-name="パス 573" d="M533.008,315.1a1.117,1.117,0,0,0-1.619,0L528.38,318.1a1.146,1.146,0,0,0,1.62,1.62l1.08-1.08v6.942a1.16,1.16,0,0,0,1.157,1.157,1.136,1.136,0,0,0,1.157-1.157v-6.942l1.08,1.08a1.146,1.146,0,0,0,1.62-1.62Z" transform="translate(-1.302 -2.6)" fill="#a6d15f"/>
      <path id="パス_574" data-name="パス 574" d="M549.361,307.3h-6.942l1.08-1.079a1.146,1.146,0,0,0-1.62-1.62l-3.008,3.008a1.119,1.119,0,0,0,0,1.62l3.008,3.008a1.146,1.146,0,0,0,1.62-1.62l-1.08-1h6.942a1.157,1.157,0,0,0,0-2.314Z" transform="translate(-2.6 -1.298)" fill="#a6d15f"/>
      <path id="パス_575" data-name="パス 575" d="M534.4,297.161l-1.041,1.08V291.3a1.161,1.161,0,0,0-1.157-1.157,1.137,1.137,0,0,0-1.157,1.157v6.942l-1.08-1.08a1.146,1.146,0,0,0-1.62,1.62l3.008,3.008a1.117,1.117,0,0,0,1.62,0l3.008-3.008a1.118,1.118,0,0,0,0-1.62A1.107,1.107,0,0,0,534.4,297.161Z" transform="translate(-1.295)" fill="#a6d15f"/>
      <path id="パス_576" data-name="パス 576" d="M522.557,304.605a1.146,1.146,0,0,0-1.62,1.62l1.08,1.079h-6.942a1.157,1.157,0,0,0,0,2.314h6.942l-1.08,1.08a1.118,1.118,0,0,0,0,1.62,1.119,1.119,0,0,0,1.62,0l3.008-3.008a1.118,1.118,0,0,0,0-1.62Z" transform="translate(0 -1.302)" fill="#a6d15f"/>
      <circle id="楕円形_18" data-name="楕円形 18" cx="3.934" cy="3.934" r="3.934" transform="translate(526.966 303.226)" fill="#0093ff"/>
    </g>
  </g>
</svg>
