<svg xmlns="http://www.w3.org/2000/svg" width="160" height="120" viewBox="0 0 160 120">
  <g id="グループ_10522" data-name="グループ 10522" transform="translate(-746 -606)">
    <g id="グループ_10690" data-name="グループ 10690">
      <rect id="長方形_1497" data-name="長方形 1497" width="160" height="120" rx="5" transform="translate(746 606)" fill="#d1f5f0"/>
      <g id="グループ_10374" data-name="グループ 10374" transform="translate(776 624.569)">
        <path id="パス_457" data-name="パス 457" d="M22.667,27.434H18.989a8.785,8.785,0,0,1,.484,3c0,2.239-1.444,4.573-2.727,6.2l-.694-5.11a3.543,3.543,0,0,1-1.247.23h0a3.567,3.567,0,0,1-1.25-.229l-.692,5.109c-1.283-1.63-2.728-3.964-2.728-6.2a8.759,8.759,0,0,1,.485-3H6.939A6.96,6.96,0,0,0,0,34.373V55.19a2.545,2.545,0,0,0,5.089,0V35.761H6.477v51.81a3.7,3.7,0,1,0,7.4,0v-29.6h1.851v29.6a3.7,3.7,0,1,0,7.4,0V35.761h1.388V55.19a2.545,2.545,0,0,0,5.089,0V34.373A6.961,6.961,0,0,0,22.667,27.434Zm-.925,12.028H16.654V38.074h5.088Z" transform="translate(0 -8.728)" fill="#4dbbaa"/>
        <path id="パス_458" data-name="パス 458" d="M13.624,27.753l-.589,2.327.07.111a2.574,2.574,0,0,0,3.4,0l.07-.109-.59-2.327H13.624Z" transform="translate(0 -8.728)" fill="#4dbbaa"/>
        <path id="パス_459" data-name="パス 459" d="M8.158,16.615a1.084,1.084,0,0,0,.433.67,6.477,6.477,0,1,0,12.423,0,1.089,1.089,0,0,0,.434-.67c.8.029,1.409-.1,1.678-.521.9-1.424-1.411-7.366-8.323-7.366S5.577,14.67,6.48,16.094C6.749,16.519,7.363,16.644,8.158,16.615ZM14.8,9.967a1.362,1.362,0,1,1-1.362,1.362A1.362,1.362,0,0,1,14.8,9.967Zm0,3.431c3.678,0,6.66.949,6.66,2.119a.839.839,0,0,1-.2.5c-.713-.927-3.331-1.615-6.462-1.615s-5.748.688-6.461,1.615a.833.833,0,0,1-.2-.5C8.143,14.347,11.125,13.4,14.8,13.4Z" transform="translate(0 -8.728)" fill="#4dbbaa"/>
        <path id="パス_460" data-name="パス 460" d="M93.061,27.434H89.383a8.785,8.785,0,0,1,.484,3c0,2.239-1.445,4.573-2.727,6.2l-.694-5.11a3.543,3.543,0,0,1-1.247.23h0a3.563,3.563,0,0,1-1.25-.229l-.693,5.109c-1.282-1.63-2.727-3.964-2.727-6.2a8.759,8.759,0,0,1,.485-3H77.333a6.96,6.96,0,0,0-6.939,6.939V55.191a2.545,2.545,0,0,0,5.089,0V35.761h1.388v51.81a3.7,3.7,0,1,0,7.4,0v-29.6h1.85v29.6a3.7,3.7,0,1,0,7.4,0V35.761h1.387V55.19a2.544,2.544,0,0,0,5.089,0V34.373A6.961,6.961,0,0,0,93.061,27.434Zm-.925,12.028H87.047V38.074h5.089Z" transform="translate(0 -8.728)" fill="#4dbbaa"/>
        <path id="パス_461" data-name="パス 461" d="M84.018,27.753l-.59,2.327.07.111a2.575,2.575,0,0,0,3.4,0l.069-.109-.589-2.327H84.018Z" transform="translate(0 -8.728)" fill="#4dbbaa"/>
        <path id="パス_462" data-name="パス 462" d="M91.842,16.615c.795.029,1.409-.1,1.679-.521.9-1.424-1.412-7.366-8.324-7.366s-9.227,5.942-8.323,7.366c.269.425.883.55,1.678.521a1.08,1.08,0,0,0,.433.67,6.477,6.477,0,1,0,12.423,0A1.082,1.082,0,0,0,91.842,16.615ZM85.2,9.967a1.362,1.362,0,1,1-1.362,1.362A1.362,1.362,0,0,1,85.2,9.967Zm0,4.44c-3.131,0-5.749.688-6.462,1.615a.839.839,0,0,1-.2-.5c0-1.17,2.982-2.119,6.66-2.119s6.66.949,6.66,2.119a.839.839,0,0,1-.2.5C90.946,15.1,88.328,14.407,85.2,14.407Z" transform="translate(0 -8.728)" fill="#4dbbaa"/>
        <path id="パス_463" data-name="パス 463" d="M57.864,27.434H54.186a8.785,8.785,0,0,1,.484,3c0,2.239-1.444,4.573-2.727,6.2l-.694-5.11a3.543,3.543,0,0,1-1.247.23h0a3.557,3.557,0,0,1-1.249-.229l-.693,5.109c-1.283-1.63-2.727-3.964-2.727-6.2a8.785,8.785,0,0,1,.484-3H42.137A6.959,6.959,0,0,0,35.2,34.373V55.191a2.544,2.544,0,1,0,5.088,0V35.761h1.388v51.81a3.7,3.7,0,1,0,7.4,0v-29.6h1.85v29.6a3.7,3.7,0,1,0,7.4,0V35.761h1.388V55.19a2.545,2.545,0,0,0,5.089,0V34.373A6.963,6.963,0,0,0,57.864,27.434Zm-.925,12.028H51.851V38.074h5.088Z" transform="translate(0 -8.728)" fill="#4dbbaa"/>
        <path id="パス_464" data-name="パス 464" d="M48.821,27.753l-.59,2.327.07.111a2.575,2.575,0,0,0,3.4,0l.069-.109-.589-2.327H48.821Z" transform="translate(0 -8.728)" fill="#4dbbaa"/>
        <path id="パス_465" data-name="パス 465" d="M43.355,16.615a1.086,1.086,0,0,0,.434.67,6.476,6.476,0,1,0,12.422,0,1.084,1.084,0,0,0,.434-.67c.795.029,1.409-.1,1.679-.521.9-1.424-1.412-7.366-8.324-7.366s-9.226,5.942-8.323,7.366C41.946,16.519,42.56,16.644,43.355,16.615ZM50,9.967a1.362,1.362,0,1,1-1.362,1.362A1.362,1.362,0,0,1,50,9.967ZM50,13.4c3.678,0,6.66.949,6.66,2.119a.839.839,0,0,1-.2.5c-.713-.927-3.331-1.615-6.462-1.615s-5.748.688-6.461,1.615a.839.839,0,0,1-.2-.5C43.34,14.347,46.322,13.4,50,13.4Z" transform="translate(0 -8.728)" fill="#4dbbaa"/>
      </g>
    </g>
  </g>
</svg>
