<svg xmlns="http://www.w3.org/2000/svg" width="160" height="120" viewBox="0 0 160 120">
  <g id="グループ_10536" data-name="グループ 10536" transform="translate(-553 -670)">
    <rect id="長方形_1497" data-name="長方形 1497" width="160" height="120" rx="5" transform="translate(553 670)" fill="#d1f5f0"/>
    <g id="グループ_10535" data-name="グループ 10535" transform="translate(-182 -207)">
      <path id="パス_455" data-name="パス 455" d="M94.237,79.717h-6A4.036,4.036,0,0,1,84.2,75.686a15.513,15.513,0,0,0-9.575-14.314V57.706a4.721,4.721,0,0,0-2.12-3.938V7.977a4.84,4.84,0,0,0-9.68,0v45.79a4.722,4.722,0,0,0-2.121,3.939v3.467a15.514,15.514,0,0,0-10.08,14.513v5.053A15.507,15.507,0,0,0,66.116,96.228H82.1A14.339,14.339,0,0,0,96.424,81.9,2.187,2.187,0,0,0,94.237,79.717ZM67.668,6.263a1.717,1.717,0,0,1,1.715,1.715v45h-3.43v-45A1.716,1.716,0,0,1,67.668,6.263ZM65.083,60.2v-2.49a.35.35,0,0,1,.349-.35H69.9a.35.35,0,0,1,.35.35V60.2H65.083ZM82.164,91.849A10.119,10.119,0,0,1,75.993,85.4l-.259-.815a1.563,1.563,0,0,0-2.978.949l.26.814a13.283,13.283,0,0,0,3.4,5.507H72.79a12.17,12.17,0,0,1-8.333-11.53V78.212a1.563,1.563,0,0,0-3.125,0v2.111a15.246,15.246,0,0,0,5.27,11.53h-.486A11.127,11.127,0,0,1,55,80.739V75.686A11.127,11.127,0,0,1,66.116,64.572h2.6A11.126,11.126,0,0,1,79.827,75.686a8.416,8.416,0,0,0,8.407,8.406h3.572A9.96,9.96,0,0,1,82.164,91.849Z" transform="translate(765.05 886.863)" fill="#4dbbaa"/>
      <path id="パス_456" data-name="パス 456" d="M45.881,57.369H44.875l.081-1.563.081-1.487a2.2,2.2,0,0,0-.593-1.625c-.007-.006-.019-.013-.032-.025A6.7,6.7,0,0,0,37.712,46a6.438,6.438,0,0,0-.918.063,9.353,9.353,0,0,0-18.057-.688,7.924,7.924,0,0,0-2.831-.531A7.813,7.813,0,0,0,8.1,52.65c0,.006.006.013.006.025s-.019.013-.025.019a2.18,2.18,0,0,0-.6,1.625l.081,1.487.082,1.563H6.637A3.69,3.69,0,0,0,2.95,61.056V72.25a14.267,14.267,0,0,0,6.1,11.7v.006l.106,1.925.438,8.288a2.181,2.181,0,0,0,2.181,2.068H40.744a2.192,2.192,0,0,0,2.187-2.068l.438-8.294.1-1.919a14.282,14.282,0,0,0,6.1-11.706V61.056A3.686,3.686,0,0,0,45.881,57.369Zm-29.975-9.4a4.7,4.7,0,0,1,2.988,1.081,1.564,1.564,0,0,0,2.562-1.144,6.224,6.224,0,0,1,12.444.188,1.575,1.575,0,0,0,.744,1.319,1.559,1.559,0,0,0,1.506.075,3.572,3.572,0,0,1,5.075,2.525H24.662v.031A1.868,1.868,0,0,0,23.1,53.888V64.231A1.194,1.194,0,0,1,21.7,65.4a1.24,1.24,0,0,1-.988-1.244V53.888a1.868,1.868,0,0,0-1.562-1.844v-.031H11.275A4.684,4.684,0,0,1,15.906,47.969ZM38.888,87.688l-.219,4.174H13.85l-.219-4.174-.087-1.632a14.157,14.157,0,0,0,3.7.488H35.275a14.157,14.157,0,0,0,3.7-.488ZM46.444,72.25a11.113,11.113,0,0,1-3.225,7.837l-.188.188c-.175.162-.35.325-.537.481-.063.057-.132.113-.194.169-.238.188-.481.375-.731.544a1.9,1.9,0,0,1-.182.119c-.212.143-.437.275-.662.4-.063.037-.131.081-.2.118-.269.144-.544.275-.825.4-.075.025-.144.057-.213.082a11.038,11.038,0,0,1-4.212.831H17.244a11.181,11.181,0,0,1-4.175-.813l-.263-.112c-.269-.119-.537-.244-.8-.381-.075-.044-.15-.088-.231-.132-.213-.125-.425-.25-.631-.387-.069-.044-.132-.081-.2-.125-.244-.175-.488-.35-.719-.544-.069-.05-.131-.106-.194-.156-.2-.175-.4-.356-.594-.544-.037-.037-.075-.069-.112-.106a11.145,11.145,0,0,1-3.25-7.869V61.056a.56.56,0,0,1,.562-.562H7.806l.088,1.562L8.662,76.55a9.569,9.569,0,0,0,4.613,4.444l-1.3-24.606h5.612v7.843a4.32,4.32,0,0,0,4.888,4.275,4.42,4.42,0,0,0,3.75-4.425V56.388H40.55L39.244,80.994a9.6,9.6,0,0,0,4.619-4.45l.768-14.488.082-1.562h1.168a.56.56,0,0,1,.563.562Z" transform="translate(765.05 886.863)" fill="#4dbbaa"/>
    </g>
  </g>
</svg>
