<svg xmlns="http://www.w3.org/2000/svg" width="160" height="120" viewBox="0 0 160 120">
  <g id="グループ_10522" data-name="グループ 10522" transform="translate(-746 -606)">
    <rect id="長方形_1497" data-name="長方形 1497" width="160" height="120" rx="5" transform="translate(746 606)" fill="#d1f5f0"/>
    <g id="グループ_10537" data-name="グループ 10537" transform="translate(776.5 616.15)">
      <g id="グループ_10537-2" data-name="グループ 10537">
        <path id="パス_513" data-name="パス 513" d="M95.8,28.5,66.7,19a2.2,2.2,0,0,0-1.6,0L36,28.5a2.494,2.494,0,0,0-1.7,2.4V69.1A2.591,2.591,0,0,0,36,71.5L65.1,81a3.25,3.25,0,0,0,1.6,0l29.1-9.6A2.494,2.494,0,0,0,97.5,69V30.9A2.591,2.591,0,0,0,95.8,28.5ZM63.4,75.2,39.3,67.3v-33l9.6,3.1V56.1a2.5,2.5,0,0,0,5,0v-17l9.6,3.1v33Zm2.5-37.4-6.8-2.2,4.8-1.7a2.483,2.483,0,0,0,1.5-3.2,2.568,2.568,0,0,0-3.2-1.5L51.5,33.1l-6.7-2.2L65.9,24,87,30.9ZM92.5,67.3l-9.6,3.1V59.6a2.476,2.476,0,0,0-2.5-2.5A2.393,2.393,0,0,0,78,59.6V72.1l-9.6,3.1v-33l24.1-7.9Z" fill="#4dbbaa"/>
        <path id="パス_514" data-name="パス 514" d="M22.7,33.6H5a2.5,2.5,0,0,0,0,5H22.7a2.476,2.476,0,0,0,2.5-2.5A2.61,2.61,0,0,0,22.7,33.6Z" fill="#4dbbaa"/>
        <path id="パス_515" data-name="パス 515" d="M22.7,47.5H5a2.5,2.5,0,0,0,0,5H22.7A2.476,2.476,0,0,0,25.2,50,2.54,2.54,0,0,0,22.7,47.5Z" fill="#4dbbaa"/>
        <path id="パス_516" data-name="パス 516" d="M22.7,61.4H5a2.5,2.5,0,0,0,0,5H22.7a2.476,2.476,0,0,0,2.5-2.5A2.54,2.54,0,0,0,22.7,61.4Z" fill="#4dbbaa"/>
      </g>
    </g>
  </g>
</svg>
